
<svg xmlns="http://www.w3.org/2000/svg" version="1.1" xmlns:xlink="http://www.w3.org/1999/xlink" preserveAspectRatio="none" x="0px" y="0px" width="1920px" height="1080px" viewBox="0 0 1920 1080">
<defs>
<image id="____png" x="0" y="0" width="3126" height="2083" xlink:href="./изображения/____png.png"/>

<image id="________2_png________" x="0" y="0" width="287" height="287" xlink:href="./изображения/________2_png________.png"/>

<image id="_______1_png________" x="0" y="0" width="874" height="321" xlink:href="./изображения/_______1_png________.png"/>

<image id="_______png________" x="0" y="0" width="610" height="871" xlink:href="./изображения/_______png________.png"/>

<image id="_______png" x="0" y="0" width="832" height="832" xlink:href="./изображения/_______png.png"/>
</defs>

<g transform="matrix( 0.6147918701171875, 0, 0, 0.52081298828125, 0,-4) ">
<use xlink:href="#____png"/>
</g>

<g transform="matrix( 1, 0, 0, 1, 1151.85,-172.4) ">
<g transform="matrix( 1, 0, 0, 1, 0,0) ">
<use xlink:href="#________2_png________"/>
</g>
</g>

<g transform="matrix( 0.9957122802734375, 0.0923919677734375, -0.0923919677734375, 0.9957122802734375, 91.25,562.3) ">
<g transform="matrix( 1, 0, 0, 1, 0,0) ">
<use xlink:href="#_______1_png________"/>
</g>
</g>

<g transform="matrix( 1, 0, 0, 1, 1755.95,1122.9) ">
<g transform="matrix( 0.9659271240234375, -0.2587890625, 0.2587890625, 0.9659271240234375, -407.3,-341.7) ">
<use xlink:href="#_______png________"/>
</g>
</g>

<g transform="matrix( 0.928131103515625, -0.1693572998046875, 0.1693572998046875, 0.928131103515625, 1135.5,4.35) ">
<g transform="matrix( 1, 0, 0, 1, 0,0) ">
<use xlink:href="#_______png"/>
</g>
</g>
</svg>
