
<svg xmlns="http://www.w3.org/2000/svg" version="1.1" xmlns:xlink="http://www.w3.org/1999/xlink" preserveAspectRatio="none" x="0px" y="0px" width="1920px" height="1080px" viewBox="0 0 1920 1080">
<defs>
<image id="FL_5_jpg" x="0" y="0" width="107" height="172" xlink:href="./изображения/FL_5_jpg.jpg"/>

<image id="FL_6_jpg" x="0" y="0" width="109" height="169" xlink:href="./изображения/FL_6_jpg.jpg"/>

<image id="FL_7_jpg" x="0" y="0" width="132" height="173" xlink:href="./изображения/FL_7_jpg.jpg"/>

<image id="FL_8_jpg" x="0" y="0" width="118" height="178" xlink:href="./изображения/FL_8_jpg.jpg"/>

<image id="FL_9_jpg" x="0" y="0" width="88" height="171" xlink:href="./изображения/FL_9_jpg.jpg"/>

<image id="FL_10_jpg" x="0" y="0" width="96" height="176" xlink:href="./изображения/FL_10_jpg.jpg"/>
</defs>

<g transform="matrix( 1, 0, 0, 1, 907,444) ">
<use xlink:href="#FL_5_jpg"/>
</g>

<g transform="matrix( 1, 0, 0, 1, 906,444) ">
<use xlink:href="#FL_6_jpg"/>
</g>

<g transform="matrix( 1, 0, 0, 1, 894,444) ">
<use xlink:href="#FL_7_jpg"/>
</g>

<g transform="matrix( 1, 0, 0, 1, 901,444) ">
<use xlink:href="#FL_8_jpg"/>
</g>

<g transform="matrix( 1, 0, 0, 1, 916,444) ">
<use xlink:href="#FL_9_jpg"/>
</g>

<g transform="matrix( 1, 0, 0, 1, 912,444) ">
<use xlink:href="#FL_10_jpg"/>
</g>
</svg>
